<svg width="45" height="59" viewBox="0 0 45 59" fill="none" xmlns="http://www.w3.org/2000/svg">
<path d="M38.9982 14.6502C39.0221 15.2088 38.8101 15.7515 38.4144 16.1451C38.0187 16.5389 37.4759 16.7471 36.9191 16.7185H34.6587V17.3041V26.5237V26.524C34.6769 27.3778 34.3471 28.2021 33.7456 28.8067C33.1439 29.4112 32.3226 29.7436 31.4711 29.7272H26.8216C25.8877 29.7272 25.3993 29.2341 25.3993 28.2845V22.8674C25.3993 21.4145 24.6765 20.3755 23.4192 19.9388C21.6536 19.3234 19.6968 20.5743 19.6275 22.4472C19.5582 24.3202 19.5748 26.2725 19.6045 28.1854C19.6045 29.1286 19.0898 29.7738 18.0567 29.7407C16.5322 29.6911 15.0042 29.7407 13.4797 29.7407V29.7405C12.6471 29.7449 11.8472 29.4162 11.2568 28.8276C10.6666 28.2387 10.3347 27.4382 10.3348 26.6033V17.4563V16.7183H8.17663C6.77409 16.7183 5.9788 15.9077 6.00208 14.5044L6.00185 14.5047C5.9908 13.8969 6.02924 13.2894 6.1174 12.6878C6.26794 11.9524 6.68987 11.3012 7.29872 10.8645C11.5822 7.52877 15.8633 4.19115 20.142 0.85064C20.8047 0.3008 21.638 0 22.4982 0C23.3583 0 24.1916 0.30077 24.8543 0.85064C29.1134 4.17762 33.3747 7.50212 37.6387 10.8249C38.52 11.4724 39.0283 12.5127 38.9981 13.6081V14.6503L38.9982 14.6502Z" fill="#B6DDFF"/>
<path d="M9.87129 50.3159H8.62617V45.2695H3.00117V50.3159H1.75605V39.6079H3.00117V44.1709H8.62617V39.6079H9.87129V50.3159ZM20.2289 46.2876C20.2289 46.9468 20.1435 47.5352 19.9726 48.0527C19.8017 48.5703 19.5551 49.0073 19.2328 49.3638C18.9105 49.7202 18.5199 49.9937 18.0609 50.1841C17.6068 50.3696 17.0917 50.4624 16.5155 50.4624C15.9784 50.4624 15.4853 50.3696 15.036 50.1841C14.5917 49.9937 14.206 49.7202 13.8788 49.3638C13.5565 49.0073 13.3051 48.5703 13.1244 48.0527C12.9486 47.5352 12.8607 46.9468 12.8607 46.2876C12.8607 45.4087 13.0097 44.6616 13.3075 44.0464C13.6054 43.4263 14.0302 42.9551 14.5819 42.6328C15.1386 42.3057 15.8002 42.1421 16.5668 42.1421C17.2992 42.1421 17.9389 42.3057 18.4857 42.6328C19.0375 42.96 19.4647 43.4336 19.7675 44.0537C20.0751 44.6689 20.2289 45.4136 20.2289 46.2876ZM14.1205 46.2876C14.1205 46.9321 14.206 47.4912 14.3769 47.9648C14.5478 48.4385 14.8114 48.8047 15.1679 49.0635C15.5243 49.3223 15.9833 49.4517 16.5448 49.4517C17.1015 49.4517 17.558 49.3223 17.9145 49.0635C18.2758 48.8047 18.5419 48.4385 18.7128 47.9648C18.8837 47.4912 18.9691 46.9321 18.9691 46.2876C18.9691 45.6479 18.8837 45.0962 18.7128 44.6323C18.5419 44.1636 18.2782 43.8022 17.9218 43.5483C17.5653 43.2944 17.1039 43.1675 16.5375 43.1675C15.7025 43.1675 15.0897 43.4434 14.6991 43.9951C14.3134 44.5469 14.1205 45.311 14.1205 46.2876ZM31.7218 42.1421C32.6056 42.1421 33.2721 42.374 33.7213 42.8379C34.1705 43.2969 34.3951 44.0366 34.3951 45.0571V50.3159H33.1939V45.1157C33.1939 44.4663 33.0523 43.9805 32.7691 43.6582C32.4908 43.3311 32.0758 43.1675 31.524 43.1675C30.7477 43.1675 30.1837 43.3921 29.8321 43.8413C29.4806 44.2905 29.3048 44.9521 29.3048 45.8262V50.3159H28.0963V45.1157C28.0963 44.6812 28.0328 44.3198 27.9059 44.0317C27.7838 43.7437 27.5982 43.5288 27.3492 43.3872C27.1051 43.2407 26.795 43.1675 26.419 43.1675C25.8868 43.1675 25.4596 43.2773 25.1373 43.4971C24.815 43.7168 24.5807 44.0439 24.4342 44.4785C24.2926 44.9082 24.2218 45.438 24.2218 46.0679V50.3159H23.006V42.2886H23.9874L24.1705 43.4238H24.2364C24.3976 43.1455 24.6002 42.9111 24.8443 42.7207C25.0885 42.5303 25.3619 42.3862 25.6646 42.2886C25.9674 42.1909 26.2896 42.1421 26.6314 42.1421C27.2418 42.1421 27.7521 42.2568 28.1622 42.4863C28.5772 42.7109 28.8775 43.0552 29.0631 43.519H29.129C29.3927 43.0552 29.754 42.7109 30.213 42.4863C30.672 42.2568 31.1749 42.1421 31.7218 42.1421ZM40.6585 42.1421C41.3421 42.1421 41.928 42.2935 42.4163 42.5962C42.9046 42.8989 43.2781 43.3237 43.5369 43.8706C43.7957 44.4126 43.9251 45.0474 43.9251 45.7749V46.5293H38.3807C38.3953 47.4717 38.6297 48.1895 39.0838 48.6826C39.5379 49.1758 40.1775 49.4224 41.0027 49.4224C41.5105 49.4224 41.9598 49.376 42.3504 49.2832C42.741 49.1904 43.1463 49.0537 43.5662 48.873V49.9424C43.1609 50.123 42.7581 50.2549 42.3577 50.3379C41.9622 50.4209 41.4935 50.4624 40.9515 50.4624C40.18 50.4624 39.5062 50.3062 38.93 49.9937C38.3587 49.6763 37.9144 49.2124 37.597 48.6021C37.2796 47.9917 37.1209 47.2446 37.1209 46.3608C37.1209 45.4966 37.2649 44.7495 37.553 44.1196C37.846 43.4849 38.2562 42.9966 38.7835 42.6548C39.3157 42.313 39.9407 42.1421 40.6585 42.1421ZM40.6438 43.1382C39.9944 43.1382 39.4769 43.3506 39.0911 43.7754C38.7054 44.2002 38.4759 44.7935 38.4026 45.5552H42.6507C42.6458 45.0767 42.5701 44.6567 42.4236 44.2954C42.282 43.9292 42.0647 43.646 41.7718 43.4458C41.4788 43.2407 41.1028 43.1382 40.6438 43.1382Z" fill="#B6DCFF"/>
</svg>
