<svg width="45" height="59" viewBox="0 0 45 59" fill="none" xmlns="http://www.w3.org/2000/svg">
<path d="M15.5254 20.7261H18.9875V23.8662H15.5254V20.7261Z" fill="#CAD3DB"/>
<path d="M8.875 20.7261H12.3371V23.8662H8.875V20.7261Z" fill="#CAD3DB"/>
<path d="M13.834 20.4351H20.9055V29.7827H13.834V20.4351Z" fill="#CAD3DB"/>
<path d="M15 0H30.7635V7.74118H15V0Z" fill="#CAD3DB"/>
<path d="M33.5203 13.0341C33.1034 14.0096 32.3336 14.7952 31.362 15.2367C30.3905 15.6783 29.2876 15.7437 28.2698 15.4203C27.2522 15.0969 26.3933 14.4078 25.8618 13.4887C25.105 14.7985 23.703 15.6107 22.1803 15.6212C20.6579 15.6316 19.2446 14.839 18.4693 13.5398C17.9313 14.4482 17.0705 15.1245 16.0558 15.4368C15.0412 15.7487 13.9451 15.6738 12.9831 15.2268C12.021 14.7798 11.262 13.9929 10.8545 13.02C10.2855 13.6173 9.51598 13.9882 8.69043 14.0627V29.7821H17.4565V19.8563C17.453 19.7021 17.5117 19.5532 17.6196 19.4424C17.7274 19.3313 17.8755 19.2679 18.031 19.2658H26.2691C26.6011 19.2666 26.8731 19.5274 26.8849 19.8563V29.7821H35.6509V14.0594C34.8354 13.9976 34.0741 13.6312 33.5205 13.0342L33.5203 13.0341ZM15.762 24.4509C15.762 24.6059 15.6999 24.7545 15.5894 24.8641C15.4789 24.9736 15.329 25.0352 15.1727 25.0352H10.532C10.2066 25.0352 9.9427 24.7736 9.9427 24.4509V20.1423C9.9427 19.8197 10.2066 19.5581 10.532 19.5581H15.1727C15.329 19.5581 15.4789 19.6196 15.5894 19.7291C15.6999 19.8387 15.762 19.9874 15.762 20.1423V24.4509ZM34.3245 20.1423V24.4509C34.3245 24.6059 34.2624 24.7545 34.1519 24.8641C34.0414 24.9736 33.8914 25.0352 33.7352 25.0352H29.0945C28.7691 25.0352 28.5052 24.7736 28.5052 24.4509V20.1423C28.5052 19.8197 28.7691 19.5581 29.0945 19.5581H33.7352C33.8914 19.5581 34.0414 19.6196 34.1519 19.7291C34.2624 19.8387 34.3245 19.9874 34.3245 20.1423Z" fill="#CAD3DB"/>
<path d="M35.7362 3.92126C35.5765 3.65523 35.2876 3.49196 34.9751 3.4917H31.9712V8.16471C31.9586 8.49255 31.6863 8.75128 31.3554 8.74971H14.4665C14.1355 8.75128 13.8632 8.49255 13.8506 8.16471V3.4917H11.4287C11.1401 3.49144 10.8699 3.63097 10.705 3.86545L7.15681 8.90542C7.05368 9.05252 6.99896 9.22778 7.00002 9.40696V10.7726C6.99923 11.4982 7.37096 12.1742 7.98633 12.5667C8.60193 12.9593 9.37673 13.0143 10.0423 12.7128C10.7079 12.411 11.173 11.7944 11.2764 11.0761L11.2995 10.7337H11.2992C11.32 10.427 11.5768 10.1886 11.887 10.1883H11.907C12.2248 10.1988 12.4768 10.4572 12.4765 10.7726C12.4768 10.9137 12.4676 11.0545 12.4497 11.1946L12.4357 11.3996C12.4434 12.4918 13.0366 13.4978 13.9934 14.0401C14.95 14.582 16.1254 14.5786 17.0786 14.0307C18.032 13.4827 18.6192 12.4734 18.62 11.3808C18.62 11.0581 18.8839 10.7965 19.2093 10.7965C19.5347 10.7965 19.7986 11.0581 19.7986 11.3808C19.7946 12.1966 20.1187 12.9801 20.6991 13.558C21.2797 14.136 22.0684 14.4609 22.8911 14.4607C23.7137 14.4607 24.5024 14.1355 25.0828 13.5573C25.6629 12.979 25.9867 12.1955 25.9827 11.38C25.9825 11.0571 26.2464 10.7953 26.572 10.7948H26.6323C26.958 10.7953 27.2216 11.0571 27.2216 11.38C27.2182 12.4739 27.803 13.4869 28.7564 14.038C29.71 14.5889 30.8873 14.5943 31.8457 14.0521C32.8043 13.5099 33.3987 12.5023 33.4055 11.4085L33.4034 11.3894V11.3892C33.3647 11.186 33.3452 10.9794 33.3452 10.7726C33.3473 10.4627 33.5933 10.2082 33.9056 10.1931C34.2181 10.1779 34.4878 10.4074 34.5207 10.7157L34.5696 11.2162V11.216C34.7177 11.9095 35.2039 12.4846 35.8669 12.7503C36.5298 13.0158 37.2825 12.9373 37.8752 12.5409C38.4676 12.1442 38.8228 11.4815 38.822 10.7726V9.34674C38.8228 9.19024 38.7813 9.03637 38.7015 8.90126L35.7362 3.92126Z" fill="#CAD3DB"/>
<path d="M11.175 48.1509C11.175 48.7856 11.0163 49.3276 10.6989 49.7769C10.3864 50.2212 9.94697 50.5605 9.38057 50.7949C8.81416 51.0293 8.14766 51.1465 7.38105 51.1465C6.97578 51.1465 6.59248 51.127 6.23115 51.0879C5.86982 51.0488 5.53779 50.9927 5.23506 50.9194C4.93232 50.8462 4.66621 50.7559 4.43672 50.6484V49.4546C4.80293 49.606 5.24971 49.7476 5.77705 49.8794C6.30439 50.0063 6.85615 50.0698 7.43232 50.0698C7.96943 50.0698 8.42353 49.999 8.79463 49.8574C9.16572 49.7109 9.44648 49.5034 9.63691 49.2349C9.83223 48.9614 9.92988 48.6343 9.92988 48.2534C9.92988 47.8872 9.84932 47.582 9.68818 47.3379C9.52705 47.0889 9.2585 46.8643 8.88252 46.6641C8.51143 46.459 8.00361 46.2417 7.35908 46.0122C6.90498 45.8511 6.50459 45.6753 6.15791 45.4849C5.81123 45.2896 5.5207 45.0698 5.28633 44.8257C5.05195 44.5815 4.87373 44.2983 4.75166 43.9761C4.63447 43.6538 4.57588 43.2852 4.57588 42.8701C4.57588 42.2988 4.71992 41.8105 5.00801 41.4053C5.30098 40.9951 5.70381 40.6826 6.2165 40.4678C6.73408 40.248 7.32734 40.1382 7.99629 40.1382C8.56758 40.1382 9.09492 40.1919 9.57832 40.2993C10.0666 40.4067 10.5134 40.5508 10.9187 40.7314L10.5305 41.8008C10.1447 41.6396 9.73457 41.5054 9.3 41.3979C8.87031 41.2905 8.42598 41.2368 7.96699 41.2368C7.50801 41.2368 7.11982 41.3052 6.80244 41.4419C6.48994 41.5737 6.25068 41.7617 6.08467 42.0059C5.91865 42.25 5.83564 42.5405 5.83564 42.8774C5.83564 43.2534 5.91377 43.5659 6.07002 43.8149C6.23115 44.064 6.48506 44.2861 6.83174 44.4814C7.1833 44.6719 7.64717 44.8721 8.22334 45.082C8.85322 45.3115 9.38789 45.5557 9.82734 45.8145C10.2668 46.0684 10.6013 46.3809 10.8308 46.752C11.0603 47.1182 11.175 47.5845 11.175 48.1509ZM15.0727 39.6035V43.0093C15.0727 43.2046 15.0678 43.4023 15.058 43.6025C15.0482 43.7979 15.0312 43.9785 15.0067 44.1445H15.0873C15.2533 43.8613 15.4633 43.6245 15.7172 43.4341C15.976 43.2388 16.2689 43.0923 16.5961 42.9946C16.9232 42.8921 17.2699 42.8408 17.6361 42.8408C18.2807 42.8408 18.8178 42.9434 19.2475 43.1484C19.682 43.3535 20.0067 43.6709 20.2216 44.1006C20.4413 44.5303 20.5512 45.0869 20.5512 45.7705V51H19.35V45.8511C19.35 45.1821 19.1962 44.6816 18.8886 44.3496C18.5858 44.0176 18.1195 43.8516 17.4896 43.8516C16.8939 43.8516 16.4179 43.9663 16.0614 44.1958C15.7099 44.4204 15.456 44.7524 15.2997 45.1919C15.1483 45.6313 15.0727 46.1685 15.0727 46.8032V51H13.8568V39.6035H15.0727ZM30.6524 46.9717C30.6524 47.6309 30.567 48.2192 30.3961 48.7368C30.2252 49.2544 29.9786 49.6914 29.6563 50.0479C29.3341 50.4043 28.9435 50.6777 28.4845 50.8682C28.0304 51.0537 27.5152 51.1465 26.9391 51.1465C26.402 51.1465 25.9088 51.0537 25.4596 50.8682C25.0152 50.6777 24.6295 50.4043 24.3023 50.0479C23.9801 49.6914 23.7286 49.2544 23.5479 48.7368C23.3722 48.2192 23.2843 47.6309 23.2843 46.9717C23.2843 46.0928 23.4332 45.3457 23.7311 44.7305C24.0289 44.1104 24.4537 43.6392 25.0055 43.3169C25.5621 42.9897 26.2237 42.8262 26.9903 42.8262C27.7228 42.8262 28.3624 42.9897 28.9093 43.3169C29.461 43.644 29.8883 44.1177 30.191 44.7378C30.4986 45.353 30.6524 46.0977 30.6524 46.9717ZM24.544 46.9717C24.544 47.6162 24.6295 48.1753 24.8004 48.6489C24.9713 49.1226 25.235 49.4888 25.5914 49.7476C25.9479 50.0063 26.4068 50.1357 26.9684 50.1357C27.525 50.1357 27.9815 50.0063 28.338 49.7476C28.6993 49.4888 28.9654 49.1226 29.1363 48.6489C29.3072 48.1753 29.3927 47.6162 29.3927 46.9717C29.3927 46.332 29.3072 45.7803 29.1363 45.3164C28.9654 44.8477 28.7018 44.4863 28.3453 44.2324C27.9889 43.9785 27.5274 43.8516 26.961 43.8516C26.1261 43.8516 25.5133 44.1274 25.1227 44.6792C24.7369 45.231 24.544 45.9951 24.544 46.9717ZM37.2015 42.8262C38.2024 42.8262 39.0008 43.1704 39.5965 43.8589C40.1922 44.5474 40.49 45.5825 40.49 46.9644C40.49 47.8774 40.3533 48.644 40.0799 49.2642C39.8064 49.8843 39.4207 50.353 38.9227 50.6704C38.4295 50.9878 37.846 51.1465 37.1722 51.1465C36.7474 51.1465 36.3738 51.0903 36.0516 50.978C35.7293 50.8657 35.4534 50.7144 35.2239 50.5239C34.9944 50.3335 34.804 50.126 34.6526 49.9014H34.5647C34.5794 50.0918 34.5965 50.3213 34.616 50.5898C34.6404 50.8584 34.6526 51.0928 34.6526 51.293V54.5889H33.4295V42.9727H34.4329L34.594 44.1592H34.6526C34.8089 43.915 34.9993 43.6929 35.2239 43.4927C35.4485 43.2876 35.722 43.1265 36.0442 43.0093C36.3714 42.8872 36.7571 42.8262 37.2015 42.8262ZM36.9891 43.8516C36.4324 43.8516 35.9832 43.959 35.6414 44.1738C35.3045 44.3887 35.0579 44.7109 34.9017 45.1406C34.7454 45.5654 34.6624 46.1001 34.6526 46.7446V46.979C34.6526 47.6577 34.7259 48.2314 34.8724 48.7002C35.0237 49.1689 35.2703 49.5254 35.6121 49.7695C35.9588 50.0137 36.4227 50.1357 37.0037 50.1357C37.5018 50.1357 37.9168 50.0015 38.2488 49.7329C38.5809 49.4644 38.8274 49.0908 38.9886 48.6123C39.1546 48.1289 39.2376 47.5747 39.2376 46.9497C39.2376 46.0024 39.052 45.2505 38.681 44.6938C38.3147 44.1323 37.7508 43.8516 36.9891 43.8516Z" fill="#8999A1"/>
</svg>
