<svg width="39" height="59" viewBox="0 0 39 59" fill="none" xmlns="http://www.w3.org/2000/svg">
<path d="M28.3359 28.1928C28.3359 28.5092 28.5972 28.7682 28.9164 28.7682H31.7603C32.0795 28.7682 32.3408 28.5092 32.3408 28.1928V25.9009H28.336L28.3359 28.1928Z" fill="#CAD3DB"/>
<path d="M31.9637 7.28875C31.7258 6.27609 31.3486 5.27492 30.8551 4.30816C30.6578 3.92267 30.0193 3.92267 29.8221 4.30816C28.9002 6.10891 28.4099 8.02111 28.3486 9.99097H32.3283C32.2989 9.08309 32.1801 8.17707 31.9637 7.28859L31.9637 7.28875Z" fill="#CAD3DB"/>
<path d="M28.3359 11.1421H32.3407V24.7507H28.3359V11.1421Z" fill="#CAD3DB"/>
<path d="M20.8722 21.4043C19.7701 21.4043 18.873 22.2932 18.873 23.3856C18.873 24.4782 19.7701 25.3673 20.8722 25.3673C21.9742 25.3673 22.8706 24.4784 22.8706 23.3856C22.8706 22.2932 21.9742 21.4043 20.8722 21.4043Z" fill="#CAD3DB"/>
<path d="M6 2.05671V27.6683C6 28.276 6.49704 28.7686 7.10988 28.7686H24.2194C24.8324 28.7686 25.3293 28.2758 25.3293 27.6683V2.05671C25.3293 1.30976 25.6331 0.524131 26.055 -0.000976562H8.07559C6.92928 -0.000976562 6.00005 0.92026 6.00005 2.05671H6ZM8.46815 16.2129H22.8636C23.2122 16.2129 23.4945 16.493 23.4945 16.8384C23.4945 17.1838 23.2124 17.4639 22.8636 17.4639L8.46815 17.4637C8.11953 17.4637 7.83723 17.1836 7.83723 16.8382C7.83723 16.493 8.11932 16.2129 8.46815 16.2129V16.2129ZM7.83723 12.4729C7.83723 12.1274 8.11932 11.8473 8.46815 11.8473H22.8636C23.2122 11.8473 23.4945 12.1274 23.4945 12.4729C23.4945 12.8183 23.2124 13.0984 22.8636 13.0984H8.46815C8.11932 13.0984 7.83723 12.8183 7.83723 12.4729V12.4729ZM16.0506 26.1952H8.46778C8.11915 26.1952 7.83685 25.9151 7.83685 25.5697C7.83685 25.2243 8.11895 24.9442 8.46778 24.9442H16.0506C16.3992 24.9442 16.6815 25.2243 16.6815 25.5697C16.6813 25.9151 16.3992 26.1952 16.0506 26.1952ZM16.0506 21.8296H8.46778C8.11915 21.8296 7.83685 21.5495 7.83685 21.2041C7.83685 20.8587 8.11895 20.5786 8.46778 20.5786H16.0506C16.3992 20.5786 16.6815 20.8587 16.6815 21.2041C16.6813 21.5498 16.3992 21.8296 16.0506 21.8296ZM20.8707 26.6179C19.0724 26.6179 17.6099 25.1679 17.6099 23.3854C17.6099 21.6032 19.0724 20.1533 20.8707 20.1533C22.6683 20.1533 24.1308 21.6032 24.1308 23.3854C24.1308 25.1677 22.6683 26.6179 20.8707 26.6179ZM12.057 3.11676H18.6433C18.9919 3.11676 19.2742 3.39685 19.2742 3.74226C19.2742 4.08767 18.9921 4.36776 18.6433 4.36776L12.057 4.36756C11.7083 4.36756 11.426 4.08747 11.426 3.74205C11.426 3.39685 11.7081 3.11676 12.057 3.11676V3.11676ZM22.8637 7.48213C23.2123 7.48213 23.4946 7.76222 23.4946 8.10764C23.4946 8.45305 23.2125 8.73314 22.8637 8.73314H8.46821C8.11958 8.73314 7.83728 8.45305 7.83728 8.10764C7.83728 7.76222 8.11938 7.48213 8.46821 7.48213H22.8637Z" fill="#CAD3DB"/>
<path d="M30.7493 2.05844V2.92144C30.6158 2.88701 30.4823 2.86968 30.3373 2.86968C29.6697 2.86968 29.0778 3.22073 28.7877 3.78467C27.714 5.87907 27.1742 8.10603 27.1742 10.4073V10.7986H26.5879V2.05804C26.5879 0.970472 27.4468 0.0671318 28.5845 -0.00195312H28.6714C29.8148 -0.00195312 30.7493 0.918645 30.7493 2.05804L30.7493 2.05844Z" fill="#CAD3DB"/>
<path d="M4.28525 40.292H7.31748C8.65537 40.292 9.66123 40.4922 10.3351 40.8926C11.0089 41.293 11.3458 41.9741 11.3458 42.936C11.3458 43.3511 11.2652 43.7246 11.1041 44.0566C10.9479 44.3838 10.7184 44.6548 10.4156 44.8696C10.1129 45.0845 9.73936 45.2334 9.29502 45.3164V45.3896C9.76377 45.4629 10.1788 45.5972 10.5401 45.7925C10.9015 45.9878 11.1847 46.2612 11.3897 46.6128C11.5948 46.9644 11.6974 47.4111 11.6974 47.9531C11.6974 48.6123 11.5436 49.1689 11.2359 49.623C10.9332 50.0771 10.5035 50.4214 9.94687 50.6558C9.39023 50.8853 8.73105 51 7.96934 51H4.28525V40.292ZM5.53037 44.8843H7.58115C8.51377 44.8843 9.1583 44.7305 9.51475 44.4229C9.87607 44.1152 10.0567 43.666 10.0567 43.0752C10.0567 42.4648 9.84189 42.0254 9.41221 41.7568C8.9874 41.4883 8.30869 41.354 7.37607 41.354H5.53037V44.8843ZM5.53037 45.9316V49.938H7.75693C8.70908 49.938 9.38291 49.7524 9.77842 49.3813C10.1739 49.0054 10.3717 48.5 10.3717 47.8652C10.3717 47.46 10.2813 47.1133 10.1007 46.8252C9.9249 46.5371 9.63682 46.3174 9.23643 46.166C8.84092 46.0098 8.31113 45.9316 7.64707 45.9316H5.53037ZM15.6976 51H14.4744V39.6035H15.6976V51ZM25.8647 46.9717C25.8647 47.6309 25.7793 48.2192 25.6084 48.7368C25.4375 49.2544 25.1909 49.6914 24.8687 50.0479C24.5464 50.4043 24.1558 50.6777 23.6968 50.8682C23.2427 51.0537 22.7275 51.1465 22.1514 51.1465C21.6143 51.1465 21.1211 51.0537 20.6719 50.8682C20.2275 50.6777 19.8418 50.4043 19.5146 50.0479C19.1924 49.6914 18.9409 49.2544 18.7603 48.7368C18.5845 48.2192 18.4966 47.6309 18.4966 46.9717C18.4966 46.0928 18.6455 45.3457 18.9434 44.7305C19.2412 44.1104 19.666 43.6392 20.2178 43.3169C20.7744 42.9897 21.436 42.8262 22.2026 42.8262C22.9351 42.8262 23.5747 42.9897 24.1216 43.3169C24.6733 43.644 25.1006 44.1177 25.4033 44.7378C25.7109 45.353 25.8647 46.0977 25.8647 46.9717ZM19.7563 46.9717C19.7563 47.6162 19.8418 48.1753 20.0127 48.6489C20.1836 49.1226 20.4473 49.4888 20.8037 49.7476C21.1602 50.0063 21.6191 50.1357 22.1807 50.1357C22.7373 50.1357 23.1938 50.0063 23.5503 49.7476C23.9116 49.4888 24.1777 49.1226 24.3486 48.6489C24.5195 48.1753 24.605 47.6162 24.605 46.9717C24.605 46.332 24.5195 45.7803 24.3486 45.3164C24.1777 44.8477 23.9141 44.4863 23.5576 44.2324C23.2012 43.9785 22.7397 43.8516 22.1733 43.8516C21.3384 43.8516 20.7256 44.1274 20.335 44.6792C19.9492 45.231 19.7563 45.9951 19.7563 46.9717ZM30.883 54.6035C29.8283 54.6035 29.0153 54.4058 28.444 54.0103C27.8728 53.6196 27.5871 53.0703 27.5871 52.3623C27.5871 51.8594 27.7458 51.4297 28.0632 51.0732C28.3854 50.7168 28.8298 50.48 29.3962 50.3628C29.1862 50.2651 29.0056 50.1187 28.8542 49.9233C28.7077 49.728 28.6345 49.5034 28.6345 49.2495C28.6345 48.9565 28.715 48.7002 28.8762 48.4805C29.0422 48.2559 29.2937 48.041 29.6306 47.8359C29.2106 47.665 28.8688 47.377 28.6052 46.9717C28.3464 46.5615 28.217 46.0854 28.217 45.5435C28.217 44.9673 28.3366 44.4766 28.5759 44.0713C28.8151 43.6611 29.1618 43.3486 29.6159 43.1338C30.07 42.9189 30.6193 42.8115 31.2639 42.8115C31.4055 42.8115 31.5471 42.8188 31.6887 42.8335C31.8352 42.8433 31.9743 42.8604 32.1062 42.8848C32.238 42.9043 32.3527 42.9287 32.4504 42.958H35.2043V43.7417L33.7248 43.9248C33.8713 44.1152 33.9934 44.3447 34.091 44.6133C34.1887 44.8818 34.2375 45.1797 34.2375 45.5068C34.2375 46.3076 33.9665 46.9448 33.4245 47.4185C32.8825 47.8872 32.1379 48.1216 31.1906 48.1216C30.966 48.1216 30.7365 48.1021 30.5021 48.063C30.2629 48.1948 30.0798 48.3413 29.9528 48.5024C29.8308 48.6636 29.7697 48.8491 29.7697 49.0591C29.7697 49.2153 29.8161 49.3398 29.9089 49.4326C30.0065 49.5254 30.1457 49.5938 30.3264 49.6377C30.507 49.6768 30.7243 49.6963 30.9782 49.6963H32.3918C33.2658 49.6963 33.9348 49.8794 34.3986 50.2456C34.8674 50.6118 35.1018 51.1465 35.1018 51.8496C35.1018 52.7383 34.7404 53.4194 34.0178 53.8931C33.2951 54.3667 32.2502 54.6035 30.883 54.6035ZM30.9196 53.6514C31.5837 53.6514 32.133 53.583 32.5676 53.4463C33.007 53.3145 33.3342 53.1216 33.549 52.8677C33.7687 52.6187 33.8786 52.3208 33.8786 51.9741C33.8786 51.6519 33.8054 51.4077 33.6589 51.2417C33.5124 51.0806 33.2976 50.9731 33.0144 50.9194C32.7312 50.8608 32.3845 50.8315 31.9743 50.8315H30.5827C30.2214 50.8315 29.9064 50.8877 29.6379 51C29.3693 51.1123 29.1618 51.2783 29.0153 51.498C28.8737 51.7178 28.8029 51.9912 28.8029 52.3184C28.8029 52.7529 28.986 53.0825 29.3522 53.3071C29.7185 53.5366 30.2409 53.6514 30.9196 53.6514ZM31.2346 47.2354C31.8156 47.2354 32.2526 47.0889 32.5456 46.7959C32.8386 46.5029 32.9851 46.0757 32.9851 45.5142C32.9851 44.9136 32.8361 44.4644 32.5383 44.1665C32.2404 43.8638 31.801 43.7124 31.2199 43.7124C30.6633 43.7124 30.2336 43.8687 29.9309 44.1812C29.633 44.4888 29.4841 44.9404 29.4841 45.5361C29.4841 46.083 29.6354 46.5029 29.9382 46.7959C30.2409 47.0889 30.673 47.2354 31.2346 47.2354Z" fill="#8999A1"/>
</svg>
