<svg width="75" height="63" viewBox="0 0 75 63" fill="none" xmlns="http://www.w3.org/2000/svg">
<path d="M33.2759 0.171875C29.5087 0.171875 26.4335 2.92632 26.4335 6.29815C26.4335 9.67021 29.5089 12.4227 33.2759 12.4227C37.0432 12.4227 40.1184 9.67004 40.1184 6.29815C40.1186 2.92609 37.0433 0.171875 33.2759 0.171875ZM33.2759 13.9642C28.1563 13.9642 24 17.6846 24 22.267V26.9724C24.0002 27.2356 24.1172 27.4878 24.3254 27.674C24.5335 27.8598 24.8156 27.9641 25.1096 27.9638H32.9387C32.4472 26.8784 32.1705 25.6976 32.1705 24.461C32.1705 20.4788 34.9855 17.055 38.9155 15.6857C37.3532 14.61 35.4001 13.9642 33.2761 13.9642L33.2759 13.9642ZM42.693 17.0256C38.1183 17.0256 34.3861 20.3663 34.3861 24.4611C34.3861 28.5559 38.1183 31.8966 42.693 31.8966C47.2678 31.8966 51 28.5559 51 24.4611C51 20.3663 47.2678 17.0256 42.693 17.0256ZM42.8619 20.5477C43.0542 20.5608 43.2478 20.5891 43.4394 20.6349C44.9725 21.0016 45.976 22.344 45.7693 23.7525C45.6131 24.8178 44.7987 25.685 43.7249 26.0451V27.3831H43.7247C43.7314 27.6497 43.6176 27.9077 43.4092 28.0985C43.2008 28.2893 42.9153 28.3968 42.6171 28.3968C42.3189 28.3968 42.0334 28.2893 41.8249 28.0985C41.6165 27.9077 41.5028 27.6497 41.5094 27.3831V25.2316C41.506 24.9698 41.6185 24.7173 41.8224 24.5292C42.0264 24.3414 42.305 24.2334 42.5975 24.2287C42.6309 24.2281 42.664 24.2287 42.6971 24.2307C43.1513 24.1993 43.5083 23.9098 43.5688 23.4969C43.6329 23.0601 43.3411 22.658 42.8657 22.5443C42.3903 22.4305 41.9178 22.6425 41.73 23.0497L41.7302 23.0495C41.5799 23.3779 41.2452 23.6094 40.8526 23.6569C40.4597 23.7045 40.0686 23.5609 39.8261 23.2803C39.5835 22.9997 39.5269 22.6246 39.6772 22.2962C40.2073 21.1475 41.5156 20.4568 42.8615 20.5478L42.8619 20.5477Z" fill="#CAD3DB"/>
<path d="M13.4877 55L12.1693 51.6016H7.87734L6.56631 55H5.30654L9.496 44.248H10.6166L14.7768 55H13.4877ZM11.7958 50.4956L10.5434 47.1191C10.5141 47.0312 10.4652 46.8872 10.3969 46.687C10.3334 46.4868 10.2675 46.2793 10.1991 46.0645C10.1308 45.8496 10.0746 45.6763 10.0307 45.5444C9.98184 45.7446 9.92812 45.9448 9.86953 46.145C9.81582 46.3403 9.76211 46.5234 9.7084 46.6943C9.65469 46.8604 9.6083 47.002 9.56924 47.1191L8.29482 50.4956H11.7958ZM17.9713 43.6035V46.4526C17.9713 46.7798 17.9615 47.0972 17.942 47.4048C17.9273 47.7124 17.9151 47.9517 17.9054 48.1226H17.9713C18.191 47.7612 18.5084 47.4561 18.9234 47.207C19.3385 46.958 19.8683 46.8335 20.5128 46.8335C21.5187 46.8335 22.3194 47.1826 22.9151 47.8809C23.5157 48.5742 23.816 49.6069 23.816 50.979C23.816 51.8823 23.6793 52.644 23.4059 53.2642C23.1324 53.8843 22.7467 54.353 22.2486 54.6704C21.7506 54.9878 21.1622 55.1465 20.4835 55.1465C19.8487 55.1465 19.3263 55.0293 18.9161 54.7949C18.5108 54.5557 18.1983 54.2651 17.9786 53.9233H17.8834L17.6344 55H16.7555V43.6035H17.9713ZM20.315 47.8516C19.734 47.8516 19.2726 47.9663 18.9308 48.1958C18.589 48.4204 18.3424 48.7622 18.191 49.2212C18.0445 49.6753 17.9713 50.2515 17.9713 50.9497V51.0156C17.9713 52.0264 18.1397 52.8003 18.4767 53.3374C18.8136 53.8696 19.4264 54.1357 20.315 54.1357C21.0621 54.1357 21.6212 53.8623 21.9923 53.3154C22.3683 52.7686 22.5562 51.9873 22.5562 50.9717C22.5562 49.9365 22.3707 49.1577 21.9996 48.6353C21.6334 48.1128 21.0719 47.8516 20.315 47.8516ZM33.5364 50.9717C33.5364 51.6309 33.451 52.2192 33.2801 52.7368C33.1092 53.2544 32.8626 53.6914 32.5403 54.0479C32.2181 54.4043 31.8274 54.6777 31.3685 54.8682C30.9144 55.0537 30.3992 55.1465 29.823 55.1465C29.2859 55.1465 28.7928 55.0537 28.3436 54.8682C27.8992 54.6777 27.5135 54.4043 27.1863 54.0479C26.8641 53.6914 26.6126 53.2544 26.4319 52.7368C26.2562 52.2192 26.1683 51.6309 26.1683 50.9717C26.1683 50.0928 26.3172 49.3457 26.615 48.7305C26.9129 48.1104 27.3377 47.6392 27.8895 47.3169C28.4461 46.9897 29.1077 46.8262 29.8743 46.8262C30.6067 46.8262 31.2464 46.9897 31.7933 47.3169C32.345 47.644 32.7723 48.1177 33.075 48.7378C33.3826 49.353 33.5364 50.0977 33.5364 50.9717ZM27.428 50.9717C27.428 51.6162 27.5135 52.1753 27.6844 52.6489C27.8553 53.1226 28.1189 53.4888 28.4754 53.7476C28.8318 54.0063 29.2908 54.1357 29.8523 54.1357C30.409 54.1357 30.8655 54.0063 31.222 53.7476C31.5833 53.4888 31.8494 53.1226 32.0203 52.6489C32.1912 52.1753 32.2767 51.6162 32.2767 50.9717C32.2767 50.332 32.1912 49.7803 32.0203 49.3164C31.8494 48.8477 31.5857 48.4863 31.2293 48.2324C30.8729 47.9785 30.4114 47.8516 29.845 47.8516C29.0101 47.8516 28.3973 48.1274 28.0066 48.6792C27.6209 49.231 27.428 49.9951 27.428 50.9717ZM42.9419 46.9727V55H41.9458L41.77 53.8721H41.7041C41.5381 54.1504 41.3232 54.3848 41.0596 54.5752C40.7959 54.7656 40.498 54.9072 40.166 55C39.8389 55.0977 39.4897 55.1465 39.1187 55.1465C38.4839 55.1465 37.9517 55.0439 37.522 54.8389C37.0923 54.6338 36.7676 54.3164 36.5479 53.8867C36.333 53.457 36.2256 52.9053 36.2256 52.2314V46.9727H37.4561V52.1436C37.4561 52.8125 37.6074 53.313 37.9102 53.645C38.2129 53.9722 38.6743 54.1357 39.2944 54.1357C39.8901 54.1357 40.3638 54.0234 40.7153 53.7988C41.0718 53.5742 41.3281 53.2446 41.4844 52.8101C41.6406 52.3706 41.7188 51.8335 41.7188 51.1987V46.9727H42.9419ZM48.7805 54.1504C48.9807 54.1504 49.1857 54.1333 49.3957 54.0991C49.6057 54.0649 49.7766 54.0234 49.9084 53.9746V54.9194C49.7668 54.9829 49.569 55.0366 49.3151 55.0806C49.0661 55.1245 48.822 55.1465 48.5827 55.1465C48.1579 55.1465 47.7722 55.0732 47.4255 54.9268C47.0788 54.7754 46.8005 54.5215 46.5905 54.165C46.3854 53.8086 46.2829 53.3154 46.2829 52.6855V47.9248H45.1403V47.3315L46.2902 46.8555L46.7736 45.1123H47.5061V46.9727H49.8571V47.9248H47.5061V52.6489C47.5061 53.1519 47.6208 53.5278 47.8503 53.7769C48.0847 54.0259 48.3947 54.1504 48.7805 54.1504ZM65.0645 44.292V51.2207C65.0645 51.9775 64.9107 52.6514 64.6031 53.2422C64.3004 53.833 63.8414 54.2993 63.2262 54.6411C62.6109 54.978 61.8395 55.1465 60.9117 55.1465C59.5885 55.1465 58.5802 54.7876 57.8868 54.0698C57.1983 53.3521 56.8541 52.3926 56.8541 51.1914V44.292H58.1065V51.228C58.1065 52.1362 58.3458 52.8369 58.8243 53.3301C59.3077 53.8232 60.0279 54.0698 60.985 54.0698C61.6393 54.0698 62.1739 53.9526 62.589 53.7183C63.0089 53.479 63.3189 53.147 63.5191 52.7222C63.7242 52.2925 63.8268 51.7969 63.8268 51.2354V44.292H65.0645ZM73.5911 52.8027C73.5911 53.3154 73.4617 53.7476 73.2029 54.0991C72.949 54.4458 72.5828 54.707 72.1043 54.8828C71.6307 55.0586 71.0643 55.1465 70.4051 55.1465C69.8436 55.1465 69.3577 55.1025 68.9476 55.0146C68.5374 54.9268 68.1785 54.8022 67.8709 54.6411V53.5205C68.198 53.6816 68.5887 53.8281 69.0428 53.96C69.4969 54.0918 69.9607 54.1577 70.4344 54.1577C71.1277 54.1577 71.6307 54.0454 71.9432 53.8208C72.2557 53.5962 72.4119 53.291 72.4119 52.9053C72.4119 52.6855 72.3484 52.4927 72.2215 52.3267C72.0994 52.1558 71.8919 51.9922 71.5989 51.8359C71.306 51.6748 70.9007 51.499 70.3831 51.3086C69.8704 51.1133 69.4261 50.9204 69.0501 50.73C68.679 50.5347 68.3909 50.2979 68.1858 50.0195C67.9856 49.7412 67.8855 49.3799 67.8855 48.9355C67.8855 48.2568 68.159 47.7368 68.7059 47.3755C69.2576 47.0093 69.9803 46.8262 70.8738 46.8262C71.3572 46.8262 71.8089 46.875 72.2288 46.9727C72.6536 47.0654 73.0491 47.1924 73.4153 47.3535L73.0052 48.3276C72.6731 48.186 72.3191 48.0664 71.9432 47.9688C71.5672 47.8711 71.1839 47.8223 70.7933 47.8223C70.2317 47.8223 69.7996 47.915 69.4969 48.1006C69.199 48.2861 69.0501 48.54 69.0501 48.8623C69.0501 49.1113 69.1185 49.3164 69.2552 49.4775C69.3968 49.6387 69.6214 49.79 69.929 49.9316C70.2366 50.0732 70.6419 50.2393 71.1448 50.4297C71.6478 50.6152 72.0823 50.8081 72.4485 51.0083C72.8147 51.2036 73.0955 51.4429 73.2908 51.7261C73.491 52.0044 73.5911 52.3633 73.5911 52.8027Z" fill="#8999A2"/>
</svg>
