<svg width="55" height="56" viewBox="0 0 55 56" fill="none" xmlns="http://www.w3.org/2000/svg">
<path d="M41.1787 0.286133H18.3041C18.0405 0.286133 17.7875 0.389985 17.6009 0.574771C17.4145 0.75978 17.3095 1.01059 17.3095 1.27195V4.88739H13.9944C13.7308 4.88739 13.4778 4.99124 13.2911 5.17625C13.1048 5.36103 13 5.61185 13 5.87343V23.2927C13 23.554 13.1048 23.8049 13.2911 23.9899C13.4778 24.1746 13.7307 24.2785 13.9944 24.2785H36.5375C36.8013 24.2785 37.0543 24.1747 37.2407 23.9899C37.4273 23.8049 37.5321 23.554 37.5321 23.2927V19.6773H41.1789C41.4425 19.6773 41.6955 19.5734 41.8821 19.3884C42.0685 19.2036 42.1732 18.9528 42.1732 18.6912V1.27195C42.1732 1.0106 42.0685 0.759786 41.8821 0.574771C41.6955 0.389991 41.4425 0.286133 41.1789 0.286133H41.1787ZM33.2555 20.5648C33.1681 20.7147 33.0423 20.8392 32.8911 20.9258C32.7398 21.0123 32.5682 21.0579 32.3934 21.0577H18.1051C17.8611 21.06 17.625 20.9733 17.4414 20.8142C17.2576 20.6551 17.1394 20.4345 17.1089 20.1947C17.0786 19.9549 17.138 19.7121 17.2763 19.5129L20.2268 15.3388C20.3801 15.1247 20.6132 14.9798 20.8747 14.9365C21.136 14.8934 21.404 14.9553 21.6191 15.1089L23.2103 16.2263L26.8571 11.9536C27.0601 11.7163 27.3645 11.5879 27.6778 11.6074C27.9911 11.6266 28.2767 11.7917 28.4483 12.0522L33.2222 19.5786C33.3147 19.7255 33.3663 19.894 33.3721 20.0671C33.3781 20.2402 33.3376 20.4117 33.2555 20.5646L33.2555 20.5648ZM20.2269 10.8691C20.2269 10.1369 20.5204 9.4347 21.0425 8.91676C21.5649 8.3991 22.2732 8.10819 23.0116 8.10819C23.7502 8.10819 24.4585 8.39911 24.9807 8.91676C25.5031 9.43466 25.7965 10.1369 25.7965 10.8691C25.7965 11.6012 25.5031 12.3034 24.9807 12.8213C24.4585 13.339 23.7502 13.6299 23.0116 13.6299C22.2732 13.6299 21.5649 13.339 21.0425 12.8213C20.5204 12.3034 20.2269 11.6012 20.2269 10.8691V10.8691ZM40.1842 17.7054H37.532V5.87344C37.532 5.61186 37.4272 5.36105 37.2406 5.17626C37.0542 4.99125 36.8013 4.88739 36.5374 4.88739H19.2986V2.25801H40.1841L40.1842 17.7054Z" fill="#CAD3DB"/>
<path d="M7.06191 42.3896H10.8046V47.5825C10.2431 47.7729 9.66445 47.9146 9.06875 48.0073C8.47793 48.1001 7.81631 48.1465 7.08389 48.1465C5.97061 48.1465 5.03066 47.9243 4.26406 47.48C3.50234 47.0356 2.92373 46.4033 2.52822 45.583C2.13272 44.7578 1.93496 43.7788 1.93496 42.646C1.93496 41.5376 2.15225 40.5708 2.58682 39.7456C3.02627 38.9204 3.65859 38.2808 4.48379 37.8267C5.31387 37.3677 6.30996 37.1382 7.47207 37.1382C8.06777 37.1382 8.63174 37.1943 9.16397 37.3066C9.70107 37.4141 10.1991 37.5679 10.6581 37.7681L10.182 38.8521C9.78652 38.6812 9.34951 38.5347 8.871 38.4126C8.39736 38.2905 7.90664 38.2295 7.39883 38.2295C6.52481 38.2295 5.77529 38.4102 5.15029 38.7715C4.53018 39.1328 4.0541 39.6431 3.72207 40.3022C3.39492 40.9614 3.23135 41.7427 3.23135 42.646C3.23135 43.5396 3.37539 44.3184 3.66348 44.9824C3.95156 45.6416 4.40078 46.1543 5.01113 46.5205C5.62148 46.8867 6.40762 47.0698 7.36953 47.0698C7.85293 47.0698 8.26797 47.043 8.61465 46.9893C8.96133 46.9307 9.27627 46.8623 9.55947 46.7842V43.5029H7.06191V42.3896ZM16.8922 39.8408C17.8492 39.8408 18.5597 40.0557 19.0235 40.4854C19.4874 40.915 19.7193 41.6011 19.7193 42.5435V48H18.8331L18.5987 46.8135H18.5401C18.3155 47.1064 18.0812 47.353 17.837 47.5532C17.5929 47.7485 17.3097 47.8975 16.9874 48C16.67 48.0977 16.2794 48.1465 15.8155 48.1465C15.3272 48.1465 14.8927 48.061 14.5118 47.8901C14.1358 47.7192 13.838 47.4604 13.6183 47.1138C13.4034 46.7671 13.296 46.3276 13.296 45.7954C13.296 44.9946 13.6134 44.3794 14.2481 43.9497C14.8829 43.52 15.8497 43.2856 17.1485 43.2466L18.5328 43.188V42.6973C18.5328 42.0039 18.3839 41.5181 18.086 41.2397C17.7882 40.9614 17.3683 40.8223 16.8263 40.8223C16.4063 40.8223 16.006 40.8833 15.6251 41.0054C15.2442 41.1274 14.8829 41.2715 14.5411 41.4375L14.1676 40.5146C14.5289 40.3291 14.9439 40.1704 15.4127 40.0386C15.8814 39.9067 16.3746 39.8408 16.8922 39.8408ZM18.5182 44.0449L17.295 44.0962C16.294 44.1353 15.5885 44.2988 15.1783 44.5869C14.7682 44.875 14.5631 45.2827 14.5631 45.8101C14.5631 46.269 14.7022 46.6084 14.9806 46.8281C15.2589 47.0479 15.6275 47.1577 16.0865 47.1577C16.7994 47.1577 17.3829 46.96 17.837 46.5645C18.2911 46.1689 18.5182 45.5757 18.5182 44.7847V44.0449ZM24.1224 48H22.8992V36.6035H24.1224V48ZM28.5913 48H27.3682V36.6035H28.5913V48ZM34.9279 39.8262C35.6115 39.8262 36.1975 39.9775 36.6857 40.2803C37.174 40.583 37.5476 41.0078 37.8063 41.5547C38.0651 42.0967 38.1945 42.7314 38.1945 43.459V44.2134H32.6501C32.6647 45.1558 32.8991 45.8735 33.3532 46.3667C33.8073 46.8599 34.447 47.1064 35.2722 47.1064C35.78 47.1064 36.2292 47.0601 36.6198 46.9673C37.0105 46.8745 37.4157 46.7378 37.8356 46.5571V47.6265C37.4304 47.8071 37.0275 47.939 36.6271 48.022C36.2316 48.105 35.7629 48.1465 35.2209 48.1465C34.4494 48.1465 33.7756 47.9902 33.1994 47.6777C32.6281 47.3604 32.1838 46.8965 31.8664 46.2861C31.549 45.6758 31.3903 44.9287 31.3903 44.0449C31.3903 43.1807 31.5344 42.4336 31.8225 41.8037C32.1154 41.1689 32.5256 40.6807 33.0529 40.3389C33.5852 39.9971 34.2102 39.8262 34.9279 39.8262ZM34.9133 40.8223C34.2639 40.8223 33.7463 41.0347 33.3605 41.4595C32.9748 41.8843 32.7453 42.4775 32.6721 43.2393H36.9201C36.9152 42.7607 36.8396 42.3408 36.6931 41.9795C36.5515 41.6133 36.3342 41.3301 36.0412 41.1299C35.7482 40.9248 35.3723 40.8223 34.9133 40.8223ZM44.5824 39.8262C44.7436 39.8262 44.912 39.8359 45.0878 39.8555C45.2636 39.8701 45.4198 39.8921 45.5565 39.9214L45.4027 41.0493C45.2709 41.0151 45.1244 40.9883 44.9633 40.9688C44.8021 40.9492 44.6508 40.9395 44.5092 40.9395C44.1869 40.9395 43.8817 41.0054 43.5937 41.1372C43.3104 41.2642 43.0614 41.4497 42.8466 41.6938C42.6317 41.9331 42.4633 42.2236 42.3412 42.5654C42.2191 42.9023 42.1581 43.2783 42.1581 43.6934V48H40.935V39.9727H41.9457L42.0775 41.4521H42.1288C42.2948 41.1543 42.495 40.8833 42.7294 40.6392C42.9638 40.3901 43.2348 40.1924 43.5424 40.0459C43.8549 39.8994 44.2016 39.8262 44.5824 39.8262ZM46.4806 39.9727H47.7843L49.5567 44.6309C49.6593 44.9043 49.7545 45.168 49.8424 45.4219C49.9303 45.6709 50.0084 45.9102 50.0768 46.1396C50.1451 46.3691 50.1988 46.5913 50.2379 46.8062H50.2892C50.3575 46.562 50.4552 46.2422 50.5821 45.8467C50.7091 45.4463 50.8458 45.0386 50.9923 44.6235L52.6695 39.9727H53.9806L50.4869 49.1792C50.3014 49.6724 50.0841 50.1021 49.8351 50.4683C49.5909 50.8345 49.2931 51.1152 48.9415 51.3105C48.5899 51.5107 48.1651 51.6108 47.6671 51.6108C47.4376 51.6108 47.235 51.5962 47.0592 51.5669C46.8834 51.5425 46.732 51.5132 46.6051 51.479V50.5049C46.7125 50.5293 46.8419 50.5513 46.9933 50.5708C47.1495 50.5903 47.3106 50.6001 47.4767 50.6001C47.7794 50.6001 48.0406 50.5415 48.2604 50.4243C48.485 50.312 48.6778 50.146 48.839 49.9263C49.0001 49.7065 49.1393 49.4453 49.2564 49.1426L49.6959 48.0146L46.4806 39.9727Z" fill="#8999A2"/>
</svg>
