<svg width="71" height="65" viewBox="0 0 71 65" fill="none" xmlns="http://www.w3.org/2000/svg">
<g filter="url(#filter0_dd_2_52)">
<path d="M37.2187 14.6306C37.2187 14.7597 37.2705 14.8835 37.3625 14.9748C37.4546 15.0661 37.5795 15.1174 37.7098 15.1174H40.6559C40.7861 15.1174 40.911 15.0661 41.0031 14.9748C41.0951 14.8835 41.1469 14.7597 41.1469 14.6306V11.223C41.345 11.2219 41.5233 11.1031 41.5987 10.9212C41.6756 10.7399 41.6348 10.5306 41.4954 10.3907L39.5313 8.44351C39.4388 8.35224 39.3132 8.3016 39.1828 8.30225H34.2726C34.1422 8.3016 34.0166 8.35224 33.9241 8.44351L31.96 10.3907C31.8206 10.5306 31.7798 10.7399 31.8568 10.9212C31.9322 11.1031 32.1104 11.2219 32.3086 11.223V14.6306C32.3086 14.7597 32.3603 14.8835 32.4524 14.9748C32.5444 15.0661 32.6694 15.1174 32.7996 15.1174H35.7457C35.8759 15.1174 36.0008 15.0661 36.0929 14.9748C36.185 14.8835 36.2367 14.7597 36.2367 14.6306V13.657H37.2187L37.2187 14.6306ZM35.7457 12.6834C35.4745 12.6834 35.2547 12.9014 35.2547 13.1702V14.1438H33.2906V11.223H33.7816V11.7098H34.7636V11.223H35.2547V11.7098H36.2367V11.223H36.7277V11.7098H37.7098V11.223H38.2008V11.7098H39.1828V11.223H40.1648V14.1438H38.2008V13.1702C38.2008 13.0411 38.149 12.9172 38.057 12.826C37.9649 12.7347 37.84 12.6834 37.7098 12.6834H35.7457Z" fill="#CAD3DB"/>
<path d="M21 24.5616C21.0013 25.0139 21.1493 25.4533 21.4208 25.8104C21.6922 26.1678 22.0717 26.4229 22.5 26.5359V29.6767C22.5 30.2291 22.8299 30.807 26.7499 31.2726C29.8228 31.5939 32.9109 31.7442 36 31.7227C39.089 31.7442 42.177 31.5939 45.2501 31.2726C49.1701 30.8073 49.5 30.2496 49.5 29.6767V26.5359C49.9284 26.4228 50.3078 26.1678 50.5792 25.8104C50.8507 25.4533 50.9987 25.0139 51 24.5616C51 23.9784 50.425 20.4695 49 20.4695C47.575 20.4695 47.0001 23.9783 47.0001 24.5616C47.0014 25.0139 47.1494 25.4533 47.4208 25.8104C47.6923 26.1678 48.0717 26.4229 48.5001 26.5359V28.7098C47.5045 28.4029 46.4809 28.2006 45.4452 28.1063C42.7466 27.8063 40.0348 27.6473 37.3202 27.6306C37.8501 26.2087 38.4852 24.4031 38.8202 23.1755C41.5414 22.4765 43.919 20.7842 45.5052 18.4166C47.0916 16.0493 47.7771 13.1702 47.4331 10.3213C47.0889 7.47284 45.7387 4.85116 43.6365 2.95033C41.5346 1.04927 38.8257 0 36.0201 0C33.2143 0 30.5055 1.04927 28.4037 2.95033C26.3019 4.85139 24.9515 7.47307 24.6073 10.3213C24.2631 13.17 24.9488 16.0491 26.5351 18.4166C28.1215 20.7842 30.4989 22.4765 33.2201 23.1755C33.5351 24.4031 34.1701 26.2087 34.7201 27.6306C32.0057 27.6441 29.2939 27.7994 26.5951 28.096C25.5454 28.191 24.5083 28.3968 23.5001 28.7098V26.5359C23.9285 26.4229 24.3079 26.1678 24.5794 25.8104C24.8508 25.4533 24.9988 25.0139 25.0001 24.5616C25.0001 23.9784 24.4251 20.4695 23.0001 20.4695C21.5751 20.4695 21.0002 23.9783 21.0002 24.5616L21 24.5616ZM28.9998 11.7738C28.9998 9.87464 29.7373 8.05308 31.05 6.71011C32.3627 5.36715 34.1433 4.61269 35.9997 4.61269C37.8561 4.61269 39.6367 5.36715 40.9494 6.71011C42.2621 8.05308 42.9996 9.87464 42.9996 11.7738C42.9996 13.673 42.2621 15.4946 40.9494 16.8375C39.6367 18.1805 37.8561 18.935 35.9997 18.935C34.1433 18.935 32.3627 18.1805 31.05 16.8375C29.7373 15.4946 28.9998 13.673 28.9998 11.7738V11.7738ZM35.0649 28.6536C35.3249 29.3339 35.5149 29.7995 35.5349 29.8607C35.6104 30.0559 35.7948 30.1843 35.9999 30.1843C36.205 30.1843 36.3894 30.0559 36.4648 29.8607C36.4648 29.7993 36.6749 29.3492 36.9349 28.6536C42.9348 28.6945 46.9896 29.2163 48.2147 29.6767C46.9248 30.1523 42.5398 30.6997 36.0001 30.6997C29.4603 30.6997 25.0752 30.1523 23.7855 29.6767C25.0004 29.2266 29.0603 28.7048 35.0652 28.6536H35.0649Z" fill="#CAD3DB"/>
<path d="M4.72686 56.5142V45.8062H5.97197V55.4009H10.7254V56.5142H4.72686ZM19.9771 52.4858C19.9771 53.145 19.8916 53.7334 19.7207 54.251C19.5498 54.7686 19.3032 55.2056 18.981 55.562C18.6587 55.9185 18.2681 56.1919 17.8091 56.3823C17.355 56.5679 16.8398 56.6606 16.2637 56.6606C15.7266 56.6606 15.2334 56.5679 14.7842 56.3823C14.3398 56.1919 13.9541 55.9185 13.627 55.562C13.3047 55.2056 13.0532 54.7686 12.8726 54.251C12.6968 53.7334 12.6089 53.145 12.6089 52.4858C12.6089 51.6069 12.7578 50.8599 13.0557 50.2446C13.3535 49.6245 13.7783 49.1533 14.3301 48.8311C14.8867 48.5039 15.5483 48.3403 16.3149 48.3403C17.0474 48.3403 17.687 48.5039 18.2339 48.8311C18.7856 49.1582 19.2129 49.6318 19.5156 50.252C19.8232 50.8672 19.9771 51.6118 19.9771 52.4858ZM13.8687 52.4858C13.8687 53.1304 13.9541 53.6895 14.125 54.1631C14.2959 54.6367 14.5596 55.0029 14.916 55.2617C15.2725 55.5205 15.7314 55.6499 16.293 55.6499C16.8496 55.6499 17.3062 55.5205 17.6626 55.2617C18.0239 55.0029 18.29 54.6367 18.4609 54.1631C18.6318 53.6895 18.7173 53.1304 18.7173 52.4858C18.7173 51.8462 18.6318 51.2944 18.4609 50.8306C18.29 50.3618 18.0264 50.0005 17.6699 49.7466C17.3135 49.4927 16.8521 49.3657 16.2856 49.3657C15.4507 49.3657 14.8379 49.6416 14.4473 50.1934C14.0615 50.7451 13.8687 51.5093 13.8687 52.4858ZM25.9694 56.6606C25.2468 56.6606 24.6096 56.5117 24.0578 56.2139C23.5061 55.916 23.0764 55.4619 22.7688 54.8516C22.4611 54.2412 22.3073 53.4722 22.3073 52.5444C22.3073 51.5728 22.4685 50.7793 22.7907 50.1641C23.1179 49.5439 23.5671 49.085 24.1384 48.7871C24.7097 48.4893 25.3591 48.3403 26.0866 48.3403C26.487 48.3403 26.8728 48.3818 27.2438 48.4648C27.6198 48.543 27.9274 48.6431 28.1667 48.7651L27.8005 49.7832C27.5563 49.6855 27.2731 49.5977 26.9509 49.5195C26.6335 49.4414 26.3356 49.4023 26.0573 49.4023C25.5007 49.4023 25.0368 49.522 24.6657 49.7612C24.2995 50.0005 24.0236 50.3521 23.8381 50.8159C23.6574 51.2798 23.5671 51.8511 23.5671 52.5298C23.5671 53.1792 23.655 53.7334 23.8308 54.1924C24.0114 54.6514 24.2775 55.0029 24.6291 55.2471C24.9855 55.4863 25.4299 55.606 25.9621 55.606C26.3869 55.606 26.7702 55.562 27.112 55.4741C27.4538 55.3813 27.7639 55.2739 28.0422 55.1519V56.2358C27.7736 56.3726 27.4733 56.4775 27.1413 56.5508C26.8142 56.624 26.4235 56.6606 25.9694 56.6606ZM33.6244 48.355C34.5814 48.355 35.2919 48.5698 35.7558 48.9995C36.2196 49.4292 36.4516 50.1152 36.4516 51.0576V56.5142H35.5653L35.331 55.3276H35.2724C35.0478 55.6206 34.8134 55.8672 34.5692 56.0674C34.3251 56.2627 34.0419 56.4116 33.7196 56.5142C33.4022 56.6118 33.0116 56.6606 32.5478 56.6606C32.0595 56.6606 31.6249 56.5752 31.244 56.4043C30.8681 56.2334 30.5702 55.9746 30.3505 55.6279C30.1356 55.2812 30.0282 54.8418 30.0282 54.3096C30.0282 53.5088 30.3456 52.8936 30.9804 52.4639C31.6151 52.0342 32.5819 51.7998 33.8808 51.7607L35.265 51.7021V51.2114C35.265 50.5181 35.1161 50.0322 34.8183 49.7539C34.5204 49.4756 34.1005 49.3364 33.5585 49.3364C33.1386 49.3364 32.7382 49.3975 32.3573 49.5195C31.9765 49.6416 31.6151 49.7856 31.2733 49.9517L30.8998 49.0288C31.2611 48.8433 31.6762 48.6846 32.1449 48.5527C32.6137 48.4209 33.1068 48.355 33.6244 48.355ZM35.2504 52.5591L34.0272 52.6104C33.0263 52.6494 32.3207 52.813 31.9105 53.1011C31.5004 53.3892 31.2953 53.7969 31.2953 54.3242C31.2953 54.7832 31.4345 55.1226 31.7128 55.3423C31.9911 55.562 32.3598 55.6719 32.8188 55.6719C33.5316 55.6719 34.1151 55.4741 34.5692 55.0786C35.0233 54.6831 35.2504 54.0898 35.2504 53.2988V52.5591ZM42.2242 55.6646C42.4244 55.6646 42.6295 55.6475 42.8395 55.6133C43.0494 55.5791 43.2203 55.5376 43.3521 55.4888V56.4336C43.2105 56.4971 43.0128 56.5508 42.7589 56.5947C42.5099 56.6387 42.2657 56.6606 42.0265 56.6606C41.6017 56.6606 41.2159 56.5874 40.8692 56.4409C40.5226 56.2896 40.2442 56.0356 40.0343 55.6792C39.8292 55.3228 39.7267 54.8296 39.7267 54.1997V49.439H38.5841V48.8457L39.734 48.3696L40.2174 46.6265H40.9498V48.4868H43.3009V49.439H40.9498V54.1631C40.9498 54.666 41.0646 55.042 41.294 55.291C41.5284 55.54 41.8385 55.6646 42.2242 55.6646ZM46.8689 48.4868V56.5142H45.6531V48.4868H46.8689ZM46.2757 45.4839C46.4759 45.4839 46.6468 45.5498 46.7884 45.6816C46.9349 45.8086 47.0081 46.0088 47.0081 46.2822C47.0081 46.5508 46.9349 46.751 46.7884 46.8828C46.6468 47.0146 46.4759 47.0806 46.2757 47.0806C46.0657 47.0806 45.8899 47.0146 45.7483 46.8828C45.6116 46.751 45.5433 46.5508 45.5433 46.2822C45.5433 46.0088 45.6116 45.8086 45.7483 45.6816C45.8899 45.5498 46.0657 45.4839 46.2757 45.4839ZM57.0435 52.4858C57.0435 53.145 56.958 53.7334 56.7871 54.251C56.6162 54.7686 56.3696 55.2056 56.0474 55.562C55.7251 55.9185 55.3345 56.1919 54.8755 56.3823C54.4214 56.5679 53.9062 56.6606 53.3301 56.6606C52.793 56.6606 52.2998 56.5679 51.8506 56.3823C51.4062 56.1919 51.0205 55.9185 50.6934 55.562C50.3711 55.2056 50.1196 54.7686 49.939 54.251C49.7632 53.7334 49.6753 53.145 49.6753 52.4858C49.6753 51.6069 49.8242 50.8599 50.1221 50.2446C50.4199 49.6245 50.8447 49.1533 51.3965 48.8311C51.9531 48.5039 52.6147 48.3403 53.3813 48.3403C54.1138 48.3403 54.7534 48.5039 55.3003 48.8311C55.8521 49.1582 56.2793 49.6318 56.582 50.252C56.8896 50.8672 57.0435 51.6118 57.0435 52.4858ZM50.9351 52.4858C50.9351 53.1304 51.0205 53.6895 51.1914 54.1631C51.3623 54.6367 51.626 55.0029 51.9824 55.2617C52.3389 55.5205 52.7979 55.6499 53.3594 55.6499C53.916 55.6499 54.3726 55.5205 54.729 55.2617C55.0903 55.0029 55.3564 54.6367 55.5273 54.1631C55.6982 53.6895 55.7837 53.1304 55.7837 52.4858C55.7837 51.8462 55.6982 51.2944 55.5273 50.8306C55.3564 50.3618 55.0928 50.0005 54.7363 49.7466C54.3799 49.4927 53.9185 49.3657 53.3521 49.3657C52.5171 49.3657 51.9043 49.6416 51.5137 50.1934C51.1279 50.7451 50.9351 51.5093 50.9351 52.4858ZM63.6218 48.3403C64.5739 48.3403 65.2941 48.5747 65.7824 49.0435C66.2707 49.5073 66.5148 50.2544 66.5148 51.2847V56.5142H65.3137V51.3652C65.3137 50.6963 65.1599 50.1958 64.8522 49.8638C64.5495 49.5317 64.0832 49.3657 63.4533 49.3657C62.5646 49.3657 61.9396 49.6172 61.5783 50.1201C61.217 50.623 61.0363 51.353 61.0363 52.3101V56.5142H59.8205V48.4868H60.802L60.9851 49.644H61.051C61.2219 49.3608 61.4392 49.124 61.7028 48.9336C61.9665 48.7383 62.2619 48.5918 62.5891 48.4941C62.9162 48.3916 63.2604 48.3403 63.6218 48.3403Z" fill="#8999A1"/>
</g>
<defs>
<filter id="filter0_dd_2_52" x="0.726562" y="0" width="69.7881" height="64.6606" filterUnits="userSpaceOnUse" color-interpolation-filters="sRGB">
<feFlood flood-opacity="0" result="BackgroundImageFix"/>
<feColorMatrix in="SourceAlpha" type="matrix" values="0 0 0 0 0 0 0 0 0 0 0 0 0 0 0 0 0 0 127 0" result="hardAlpha"/>
<feOffset dy="4"/>
<feGaussianBlur stdDeviation="2"/>
<feComposite in2="hardAlpha" operator="out"/>
<feColorMatrix type="matrix" values="0 0 0 0 0 0 0 0 0 0 0 0 0 0 0 0 0 0 0.25 0"/>
<feBlend mode="normal" in2="BackgroundImageFix" result="effect1_dropShadow_2_52"/>
<feColorMatrix in="SourceAlpha" type="matrix" values="0 0 0 0 0 0 0 0 0 0 0 0 0 0 0 0 0 0 127 0" result="hardAlpha"/>
<feOffset dy="4"/>
<feGaussianBlur stdDeviation="2"/>
<feComposite in2="hardAlpha" operator="out"/>
<feColorMatrix type="matrix" values="0 0 0 0 0 0 0 0 0 0 0 0 0 0 0 0 0 0 0.25 0"/>
<feBlend mode="normal" in2="effect1_dropShadow_2_52" result="effect2_dropShadow_2_52"/>
<feBlend mode="normal" in="SourceGraphic" in2="effect2_dropShadow_2_52" result="shape"/>
</filter>
</defs>
</svg>
