<svg width="200" height="38" viewBox="0 0 200 38" fill="none" xmlns="http://www.w3.org/2000/svg">
<!-- <rect width="38" height="38" rx="2" fill="#71B3C6"/> -->
<rect x="54" width="38" height="38" rx="2" fill="#71B3C6"/>
<path d="M81.0352 10.1413C82.2366 10.0663 83.2316 11.0619 83.1559 12.2632L82.9458 15.5963C82.9244 15.9363 82.6312 16.1945 82.2912 16.1726C81.9517 16.1508 81.6941 15.858 81.7156 15.5185L81.7448 15.0586C81.8076 14.0695 80.6143 13.5273 79.9106 14.2252L75.4915 18.6079C75.0075 19.0879 74.2281 19.0909 73.7404 18.6148L72.6292 17.5248C71.8484 16.7589 70.5973 16.7622 69.8206 17.5322L64.0463 23.2568C63.6587 23.641 63 23.3665 63 22.8207C63 22.6569 63.0655 22.4998 63.1819 22.3845L69.816 15.8119C70.5924 15.0426 71.8426 15.0391 72.6233 15.804L73.2032 16.3722C73.984 17.1373 75.2345 17.1336 76.0109 16.364L79.0157 13.3853C79.7231 12.684 79.1838 11.4804 78.1895 11.5417L77.721 11.5706C77.3847 11.5913 77.0953 11.3355 77.0747 10.9991C77.054 10.6631 77.3095 10.374 77.6455 10.353L81.0352 10.1413Z" fill="#D4DCE2"/>
<path d="M73.4316 24.8028C73.4316 23.9142 74.152 23.1938 75.0406 23.1938C75.9292 23.1938 76.6496 23.9142 76.6496 24.8028V26.9837C76.6496 27.8723 75.9292 28.5927 75.0406 28.5927C74.152 28.5927 73.4316 27.8723 73.4316 26.9837V24.8028Z" fill="#D4DCE2"/>
<path d="M77.8867 21.1231C77.8867 20.2345 78.6071 19.5142 79.4957 19.5142C80.3843 19.5142 81.1046 20.2345 81.1046 21.1231V26.9855C81.1046 27.8741 80.3843 28.5945 79.4957 28.5945C78.6071 28.5945 77.8867 27.8741 77.8867 26.9855V21.1231Z" fill="#D4DCE2"/>
</svg>
