<svg width="200" height="38" viewBox="0 0 200 38" fill="none" xmlns="http://www.w3.org/2000/svg">
<path d="M122.874 10C119.646 10 117 12.7324 117 16.0649C117 17.9551 118.067 19.6036 119.728 21.4568C121.389 23.31 123.705 25.4333 126.495 28.3159C126.771 28.6008 127.229 28.6009 127.505 28.3159C130.304 25.4327 132.619 23.3103 134.278 21.4568C135.937 19.6033 137 17.9536 137 16.0649C137 12.7325 134.354 10 131.126 10C130.299 10 129.577 10.2254 128.943 10.5951C127.786 11.2701 126.213 11.2704 125.056 10.5954C124.422 10.2255 123.7 10 122.873 10H122.874ZM122.874 11.4731C124.445 11.4731 125.561 12.4631 126.389 13.8841C126.661 14.354 127.34 14.3535 127.614 13.8841C128.442 12.4631 129.555 11.4731 131.126 11.4731C133.572 11.4731 135.571 13.5339 135.571 16.0649C135.571 17.375 134.805 18.6937 133.229 20.4551C132.052 21.7698 130.377 23.3822 128.437 25.3164C127.644 26.1066 126.357 26.1057 125.565 25.3146C123.631 23.3813 121.958 21.7697 120.78 20.4551C119.201 18.693 118.43 17.3733 118.43 16.0649C118.43 13.534 120.428 11.4731 122.874 11.4731H122.874Z" fill="#D4DCE2"/>
</svg>
