<svg width="200" height="38" viewBox="0 0 200 38" fill="none" xmlns="http://www.w3.org/2000/svg">
<path d="M181.681 18.4062C181.895 18.6189 182.181 18.7371 182.467 18.7371C182.777 18.7371 183.063 18.6189 183.254 18.4062L186.949 14.5538C187.354 14.1285 187.354 13.4194 186.901 13.0177C186.472 12.5923 185.757 12.6159 185.352 13.065L183.665 14.8199C183.013 15.4992 181.925 15.4965 181.275 14.8139C180.87 14.3886 180.155 14.3649 179.726 14.7666C179.297 15.1684 179.273 15.8774 179.678 16.3028L181.681 18.4062Z" fill="#D4DCE2"/>
<path d="M191.813 12.3323C191.813 12.3323 191.813 12.3323 191.813 12.3323C191.217 12.1906 190.621 12.545 190.502 13.1358L188.952 19.6588C188.761 20.4861 188.022 21.0532 187.164 21.0532L179.44 21.0534C178.582 21.0534 177.819 20.4389 177.652 19.6117L175.555 9.85083C175.435 9.35443 175.006 9 174.482 9H171.097C170.501 9 170 9.4964 170 10.0873C170 10.6781 170.501 11.1745 171.097 11.1745H171.959C172.902 11.1745 173.717 11.8335 173.914 12.7559L175.483 20.0845C175.888 21.9044 177.533 23.2515 179.416 23.2515H187.116C189 23.2515 190.597 21.9989 191.026 20.179L192.575 13.656C192.766 13.065 192.385 12.4742 191.813 12.3324C191.813 12.3324 191.813 12.3323 191.813 12.3323Z" fill="#D4DCE2"/>
<path d="M181.109 26.4891C181.109 27.481 180.298 28.2852 179.297 28.2852C178.297 28.2852 177.485 27.481 177.485 26.4891C177.485 25.497 178.297 24.6929 179.297 24.6929C180.298 24.6929 181.109 25.497 181.109 26.4891Z" fill="#D4DCE2"/>
<path d="M188.928 26.4891C188.928 27.481 188.117 28.2852 187.116 28.2852C186.116 28.2852 185.305 27.481 185.305 26.4891C185.305 25.497 186.116 24.6929 187.116 24.6929C188.117 24.6929 188.928 25.497 188.928 26.4891Z" fill="#D4DCE2"/>
</svg>
