<svg width="38" height="38" viewBox="0 0 38 38" fill="none" xmlns="http://www.w3.org/2000/svg">
<path d="M64.5195 26.2755C64.5195 25.3869 65.2399 24.6665 66.1285 24.6665C67.0171 24.6665 67.7375 25.3869 67.7375 26.2755V26.984C67.7375 27.8727 67.0171 28.593 66.1285 28.593C65.2399 28.593 64.5195 27.8727 64.5195 26.984V26.2755Z" fill="#D4DCE2"/>
<path d="M28.7332 26.6527C28.7332 26.6527 28.7332 26.6527 28.7331 26.6527L23.837 21.7986C23.2549 21.2216 23.1892 20.3188 23.4998 19.5603C23.8355 18.7409 24.0112 17.8566 24.0112 16.9454C24.0112 15.0902 23.2826 13.3462 21.9593 12.0341C20.6362 10.7223 18.877 10 17.0057 10C15.1344 10 13.3752 10.7223 12.0518 12.0343C10.7285 13.3462 10 15.0903 10 16.9452C10 18.8001 10.7286 20.5444 12.0519 21.8565C13.3753 23.1684 15.1342 23.8906 17.0058 23.8906C17.8644 23.8906 18.6993 23.7384 19.4793 23.447C20.3733 23.113 21.4235 23.1808 22.1013 23.8526L26.8295 28.5399C27.0284 28.7373 27.3943 28.6945 27.6464 28.4443L28.6367 27.4624C28.889 27.2126 28.9322 26.8499 28.7332 26.6526C28.7332 26.6526 28.7332 26.6526 28.7332 26.6527ZM17.0059 22.0096C14.1894 22.0096 11.8981 19.7381 11.8981 16.9457C11.8981 14.1535 14.1896 11.8819 17.0059 11.8819C19.8224 11.8819 22.1137 14.1537 22.1137 16.9457C22.1137 19.7381 19.8225 22.0096 17.0059 22.0096Z" fill="#D4DCE2"/>
<path d="M20.5044 16.2627C20.5044 16.2627 20.5044 16.2627 20.5044 16.2627H19.0997C18.3238 16.2627 17.6949 15.6338 17.6949 14.858V13.4775C17.6949 13.2965 17.5469 13.1499 17.3645 13.1499H16.6478C16.4653 13.1499 16.3174 13.2966 16.3174 13.4775V14.2628C16.3174 15.3674 15.4219 16.2628 14.3173 16.2628L13.5082 16.2627C13.3256 16.2627 13.1777 16.4094 13.1777 16.5903V17.3008C13.1777 17.4818 13.3257 17.6284 13.5082 17.6284H14.3174C15.422 17.6284 16.3174 18.5238 16.3174 19.6284V20.4137C16.3174 20.5947 16.4654 20.7415 16.6478 20.7415H17.3645C17.5471 20.7415 17.6949 20.5947 17.6949 20.4137L17.6949 19.6283C17.6948 18.5237 18.5903 17.6282 19.6949 17.6282H20.5043C20.6869 17.6282 20.8347 17.4817 20.8347 17.3007V16.5902C20.8348 16.4096 20.687 16.2627 20.5044 16.2627V16.2627Z" fill="#D4DCE2"/>
</svg>
